<svg width="830" height="104" viewBox="0 0 830 104" fill="none" xmlns="http://www.w3.org/2000/svg">
<mask id="path-1-inside-1_2870_150867" fill="white">
<path d="M0 103.303C0 54.4692 0 30.0525 15.0262 15.0262C30.0525 0 54.2368 0 102.606 0H727.394C775.763 0 799.948 0 814.974 15.0262C830 30.0525 830 54.4692 830 103.303V103.303H0V103.303Z"/>
</mask>
<path d="M0 103.303C0 54.4692 0 30.0525 15.0262 15.0262C30.0525 0 54.2368 0 102.606 0H727.394C775.763 0 799.948 0 814.974 15.0262C830 30.0525 830 54.4692 830 103.303V103.303H0V103.303Z" fill="url(#paint0_linear_2870_150867)"/>
<path d="M-2 49.3028C-2 19.8645 21.8645 -4 51.3028 -4H778.697C808.136 -4 832 19.8645 832 49.3028L828 51.3028C828 25.1782 805.926 4 778.697 4H51.3028C24.0736 4 2 25.1782 2 51.3028L-2 49.3028ZM832 104.303H-2L2 102.303H828L832 104.303ZM-2 104.303V49.3028C-2 19.8645 21.8645 -4 51.3028 -4V4C24.0736 4 2 25.1782 2 51.3028V102.303L-2 104.303ZM778.697 -4C808.136 -4 832 19.8645 832 49.3028V104.303L828 102.303V51.3028C828 25.1782 805.926 4 778.697 4V-4Z" fill="url(#paint1_linear_2870_150867)" fill-opacity="0.5" mask="url(#path-1-inside-1_2870_150867)"/>
<defs>
<linearGradient id="paint0_linear_2870_150867" x1="106.357" y1="-45.9124" x2="805.146" y2="315.912" gradientUnits="userSpaceOnUse">
<stop stop-color="#DFC49A"/>
<stop offset="0.132502" stop-color="#BD9963"/>
<stop offset="0.286458" stop-color="#FFDB94"/>
<stop offset="0.442708" stop-color="#C19A60"/>
<stop offset="0.604017" stop-color="#B49464"/>
<stop offset="1" stop-color="#D8B788"/>
</linearGradient>
<linearGradient id="paint1_linear_2870_150867" x1="415" y1="0" x2="415" y2="103.303" gradientUnits="userSpaceOnUse">
<stop stop-color="white"/>
<stop offset="1" stop-color="#FFE2B7" stop-opacity="0"/>
</linearGradient>
</defs>
</svg>
