<svg width="343" height="48" viewBox="0 0 343 48" fill="none" xmlns="http://www.w3.org/2000/svg">
<mask id="path-1-inside-1_3153_200565" fill="white">
<path d="M0 40C0 21.1438 0 11.7157 5.85786 5.85786C11.7157 0 21.1438 0 40 0H303C321.856 0 331.284 0 337.142 5.85786C343 11.7157 343 21.1438 343 40V48H0V40Z"/>
</mask>
<path d="M0 40C0 21.1438 0 11.7157 5.85786 5.85786C11.7157 0 21.1438 0 40 0H303C321.856 0 331.284 0 337.142 5.85786C343 11.7157 343 21.1438 343 40V48H0V40Z" fill="url(#paint0_linear_3153_200565)"/>
<path d="M-1 19C-1 7.40202 8.40202 -2 20 -2H323C334.598 -2 344 7.40202 344 19L342 20C342 10.0589 333.493 2 323 2H20C9.50659 2 1 10.0589 1 20L-1 19ZM344 48.5H-1L1 47.5H342L344 48.5ZM-1 48.5V19C-1 7.40202 8.40202 -2 20 -2V2C9.50659 2 1 10.0589 1 20V47.5L-1 48.5ZM323 -2C334.598 -2 344 7.40202 344 19V48.5L342 47.5V20C342 10.0589 333.493 2 323 2V-2Z" fill="url(#paint1_linear_3153_200565)" fill-opacity="0.5" mask="url(#path-1-inside-1_3153_200565)"/>
<defs>
<linearGradient id="paint0_linear_3153_200565" x1="35.1391" y1="15.1765" x2="322.657" y2="99.4251" gradientUnits="userSpaceOnUse">
<stop stop-color="#AEAEAE"/>
<stop offset="0.148383" stop-color="#727272"/>
<stop offset="0.280051" stop-color="#797979"/>
<stop offset="0.361309" stop-color="#B4B4B4"/>
<stop offset="0.502847" stop-color="#8A8A8A"/>
<stop offset="0.733925" stop-color="#686868"/>
<stop offset="1" stop-color="#636363"/>
</linearGradient>
<linearGradient id="paint1_linear_3153_200565" x1="171.5" y1="0" x2="171.5" y2="48" gradientUnits="userSpaceOnUse">
<stop stop-color="white"/>
<stop offset="1" stop-color="#8F8F8F" stop-opacity="0"/>
</linearGradient>
</defs>
</svg>
