<svg width="343" height="61" viewBox="0 0 343 61" fill="none" xmlns="http://www.w3.org/2000/svg">
<mask id="path-1-inside-1_3153_199687" fill="white">
<path d="M0 20C0 8.95431 8.95431 0 20 0H323C334.046 0 343 8.95431 343 20V61H0V20Z"/>
</mask>
<path d="M0 20C0 8.95431 8.95431 0 20 0H323C334.046 0 343 8.95431 343 20V61H0V20Z" fill="url(#paint0_linear_3153_199687)"/>
<path d="M-1 19C-1 7.40202 8.40202 -2 20 -2H323C334.598 -2 344 7.40202 344 19L342 20C342 10.0589 333.493 2 323 2H20C9.50659 2 1 10.0589 1 20L-1 19ZM344 61.5H-1L1 60.5H342L344 61.5ZM-1 61.5V19C-1 7.40202 8.40202 -2 20 -2V2C9.50659 2 1 10.0589 1 20V60.5L-1 61.5ZM323 -2C334.598 -2 344 7.40202 344 19V61.5L342 60.5V20C342 10.0589 333.493 2 323 2V-2Z" fill="url(#paint1_linear_3153_199687)" fill-opacity="0.5" mask="url(#path-1-inside-1_3153_199687)"/>
<defs>
<linearGradient id="paint0_linear_3153_199687" x1="43.9523" y1="-27.1111" x2="367.647" y2="90.1852" gradientUnits="userSpaceOnUse">
<stop stop-color="#8A3969"/>
<stop offset="0.132502" stop-color="#4B0730"/>
<stop offset="0.286458" stop-color="#913B6E"/>
<stop offset="0.442708" stop-color="#631142"/>
<stop offset="0.604017" stop-color="#7B2759"/>
<stop offset="1" stop-color="#BC5392"/>
</linearGradient>
<linearGradient id="paint1_linear_3153_199687" x1="171.5" y1="0" x2="171.5" y2="61" gradientUnits="userSpaceOnUse">
<stop stop-color="white"/>
<stop offset="1" stop-color="#FFE2B7" stop-opacity="0"/>
</linearGradient>
</defs>
</svg>
